<?xml version="1.0" encoding="UTF-8"?> <svg xmlns="http://www.w3.org/2000/svg" width="18" height="21" viewBox="0 0 18 21" fill="none"><path fill-rule="evenodd" clip-rule="evenodd" d="M12.2822 16.7367C14.5419 14.6115 16.983 12.3147 16.983 8.99169H16.985C16.985 4.57752 13.4071 1 8.9925 1C4.57788 1 1 4.57752 1 8.99169C1 12.3115 3.43649 14.6052 5.69428 16.7306L5.70077 16.7367L5.7209 16.7557C6.7971 17.7691 7.83256 18.744 8.5386 19.7736C8.74581 20.0755 9.2372 20.0755 9.44442 19.7736C10.1505 18.744 11.1859 17.7691 12.2621 16.7557L12.2822 16.7367ZM11.6545 8.99153C11.6545 10.4636 10.4625 11.6554 8.99034 11.6554C7.51814 11.6554 6.32617 10.4636 6.32617 8.99153C6.32617 7.51948 7.51814 6.32764 8.99034 6.32764C10.4625 6.32764 11.6545 7.51948 11.6545 8.99153Z" fill="#009CC8"></path></svg> 